<?xml version="1.0" encoding="utf-8" standalone="yes"?>
<!DOCTYPE svg PUBLIC "-//W3C//DTD SVG 1.1//EN" "http://www.w3.org/Graphics/SVG/1.1/DTD/svg11.dtd">
<svg version="1.1" xmlns="http://www.w3.org/2000/svg" xmlns:xlink="http://www.w3.org/1999/xlink" width="11.5in" height="3.305556in" class="slides-canvas" viewBox="0 0 828 238">
  <g text-rendering="geometricPrecision" transform="scale(1, 1)">
    <g transform="matrix(1, 0, 0, 1, -66, -120)">
      <path fill="#BDD7EE" d="M66 167.32C66 164.13 68.59 161.54 71.78 161.54L168.73 161.54C171.92 161.54 174.51 164.13 174.51 167.32L174.51 213.58 174.51 213.58C174.51 216.78 171.92 219.37 168.73 219.37L71.78 219.37 71.78 219.37C68.59 219.37 66 216.78 66 213.58z" />
      <path stroke-width="1" stroke="#FFFFFF" fill="none" d="M66 167.32C66 164.13 68.59 161.54 71.78 161.54L168.73 161.54C171.92 161.54 174.51 164.13 174.51 167.32L174.51 213.58 174.51 213.58C174.51 216.78 171.92 219.37 168.73 219.37L71.78 219.37 71.78 219.37C68.59 219.37 66 216.78 66 213.58z" />
    </g>
    <g transform="matrix(1, 0, 0, 1, -66, -120)">
      <path fill="#FFFFFF" fill-opacity="0.9" d="M88.23 245.99C88.23 241.73 91.68 238.28 95.94 238.28L189.03 238.28C193.29 238.28 196.74 241.73 196.74 245.99L196.74 307.67C196.74 311.93 193.29 315.38 189.03 315.38L95.94 315.38C91.68 315.38 88.23 311.93 88.23 307.67z" />
      <path stroke-width="1" stroke="#5B9BD5" fill="none" d="M88.23 245.99C88.23 241.73 91.68 238.28 95.94 238.28L189.03 238.28C193.29 238.28 196.74 241.73 196.74 245.99L196.74 307.67C196.74 311.93 193.29 315.38 189.03 315.38L95.94 315.38C91.68 315.38 88.23 311.93 88.23 307.67z" />
    </g>
    <g transform="matrix(1, 0, 0, 1, 31.2039871, 127.257263)"><text font-family="Calibri" font-style="normal" font-weight="normal" font-stretch="normal" font-size="9.375pt" fill="#000000" x="0" y="11.1375"><tspan>•</tspan></text><text font-family="Arial" font-style="normal" font-weight="normal" font-stretch="normal" font-size="9pt" fill="#000000" x="9" y="11.1375"><tspan>视图变换</tspan></text><text font-family="Calibri" font-style="normal" font-weight="normal" font-stretch="normal" font-size="9.375pt" fill="#000000" x="0" y="26.2575"><tspan>•</tspan></text><text font-family="Arial" font-style="normal" font-weight="normal" font-stretch="normal" font-size="9pt" fill="#000000" x="9" y="26.2575"><tspan>顶点着色</tspan></text></g>
    <g transform="matrix(0.997335732, 0.07294853, -0.07294853, 0.997335732, -50.3913879, -134.652786)">
      <path fill="#B5CBE7" d="M190.92 198.25L212.38 198.25 212.38 192.85 225.89 206.36 212.38 219.86 212.38 214.46 190.92 214.46z" />
    </g>
    <g transform="matrix(1, 0, 0, 1, 9.520004, 51.0590363)"><text font-family="Arial" font-style="normal" font-weight="normal" font-stretch="normal" font-size="12.75pt" fill="#000000" x="0" y="15.77812"><tspan>顶点着色</tspan></text><text font-family="SimSun" font-style="normal" font-weight="normal" font-stretch="normal" font-size="12.75pt" fill="#000000" x="0" y="41.27812"><tspan>Vertex</tspan><tspan xml:space="preserve"> </tspan></text><text font-family="SimSun" font-style="normal" font-weight="normal" font-stretch="normal" font-size="12.75pt" fill="#000000" x="0" y="59.63812"><tspan>Shading</tspan></text></g>
    <g transform="matrix(1, 0, 0, 1, -66, -120)">
      <path fill="#BDD7EE" d="M240.32 180.07C240.32 176.88 242.9 174.29 246.1 174.29L343.05 174.29C346.24 174.29 348.83 176.88 348.83 180.07L348.83 226.33C348.83 229.53 346.24 232.12 343.05 232.12L246.1 232.12 246.1 232.12C242.9 232.12 240.32 229.53 240.32 226.33z" />
      <path stroke-width="1" stroke="#FFFFFF" fill="none" d="M240.32 180.07C240.32 176.88 242.9 174.29 246.1 174.29L343.05 174.29C346.24 174.29 348.83 176.88 348.83 180.07L348.83 226.33C348.83 229.53 346.24 232.12 343.05 232.12L246.1 232.12 246.1 232.12C242.9 232.12 240.32 229.53 240.32 226.33z" />
    </g>
    <g transform="matrix(1, 0, 0, 1, -66, -120)">
      <path fill="#FFFFFF" fill-opacity="0.9" d="M262.54 233.24C262.54 228.98 265.99 225.53 270.25 225.53L363.34 225.53C367.6 225.53 371.05 228.98 371.05 233.24L371.05 294.92C371.05 299.18 367.6 302.63 363.34 302.63L270.25 302.63C265.99 302.63 262.54 299.18 262.54 294.92z" />
      <path stroke-width="1" stroke="#5B9BD5" fill="none" d="M262.54 233.24C262.54 228.98 265.99 225.53 270.25 225.53L363.34 225.53C367.6 225.53 371.05 228.98 371.05 233.24L371.05 294.92C371.05 299.18 367.6 302.63 363.34 302.63L270.25 302.63C265.99 302.63 262.54 299.18 262.54 294.92z" />
    </g>
    <g transform="matrix(1, 0, 0, 1, 205.519073, 114.507263)"><text font-family="Calibri" font-style="normal" font-weight="normal" font-stretch="normal" font-size="9.375pt" fill="#000000" x="0" y="11.1375"><tspan>•</tspan></text><text font-family="Arial" font-style="normal" font-weight="normal" font-stretch="normal" font-size="9pt" fill="#000000" x="9" y="11.1375"><tspan>曲面细分（可</tspan></text><text font-family="Arial" font-style="normal" font-weight="normal" font-stretch="normal" font-size="9pt" fill="#000000" x="9" y="24.0975"><tspan>选）</tspan></text><text font-family="Calibri" font-style="normal" font-weight="normal" font-stretch="normal" font-size="9.375pt" fill="#000000" x="0" y="39.2175"><tspan>•</tspan></text><text font-family="Arial" font-style="normal" font-weight="normal" font-stretch="normal" font-size="9pt" fill="#000000" x="9" y="39.2175"><tspan>几何着色器</tspan></text><text font-family="Arial" font-style="normal" font-weight="normal" font-stretch="normal" font-size="9pt" fill="#000000" x="9" y="52.1775"><tspan>（可选）</tspan></text></g>
    <g transform="matrix(0.9997904, -0.0204756148, 0.0204756148, 0.9997904, -70.23712, -112.119446)">
      <path fill="#B5CBE7" d="M365.28 202.75L386.65 202.75 386.65 197.35 400.16 210.85 386.65 224.36 386.65 218.96 365.28 218.96z" />
    </g>
    <g transform="matrix(1, 0, 0, 1, 183.8351, 63.8090363)"><text font-family="Arial" font-style="normal" font-weight="normal" font-stretch="normal" font-size="12.75pt" fill="#000000" x="0" y="15.77812"><tspan>可选顶点处</tspan></text><text font-family="Arial" font-style="normal" font-weight="normal" font-stretch="normal" font-size="12.75pt" fill="#000000" x="0" y="34.13812"><tspan>理</tspan></text></g>
    <g transform="matrix(1, 0, 0, 1, -66, -120)">
      <path fill="#BDD7EE" d="M414.63 176.5C414.63 173.31 417.22 170.72 420.41 170.72L517.36 170.72C520.56 170.72 523.14 173.31 523.14 176.5L523.14 222.76C523.14 225.96 520.56 228.55 517.36 228.55L420.41 228.55 420.41 228.55C417.22 228.55 414.63 225.96 414.63 222.76z" />
      <path stroke-width="1" stroke="#FFFFFF" fill="none" d="M414.63 176.5C414.63 173.31 417.22 170.72 420.41 170.72L517.36 170.72C520.56 170.72 523.14 173.31 523.14 176.5L523.14 222.76C523.14 225.96 520.56 228.55 517.36 228.55L420.41 228.55 420.41 228.55C417.22 228.55 414.63 225.96 414.63 222.76z" />
    </g>
    <g transform="matrix(1, 0, 0, 1, -66, -120)">
      <path fill="#FFFFFF" fill-opacity="0.9" d="M436.86 236.81C436.86 232.55 440.31 229.1 444.57 229.1L537.66 229.1C541.92 229.1 545.37 232.55 545.37 236.81L545.37 298.49 545.37 298.49C545.37 302.75 541.92 306.2 537.66 306.2L444.57 306.2C440.31 306.2 436.86 302.75 436.86 298.49z" />
      <path stroke-width="1" stroke="#5B9BD5" fill="none" d="M436.86 236.81C436.86 232.55 440.31 229.1 444.57 229.1L537.66 229.1C541.92 229.1 545.37 232.55 545.37 236.81L545.37 298.49 545.37 298.49C545.37 302.75 541.92 306.2 537.66 306.2L444.57 306.2C440.31 306.2 436.86 302.75 436.86 298.49z" />
    </g>
    <g transform="matrix(1, 0, 0, 1, 382.634155, 120.877274)"><text font-family="Calibri" font-style="normal" font-weight="normal" font-stretch="normal" font-size="13.125pt" fill="#000000" x="0" y="15.77812"><tspan>•</tspan></text><text font-family="Arial" font-style="normal" font-weight="normal" font-stretch="normal" font-size="12.75pt" fill="#000000" x="13.5" y="15.77812"><tspan>正交</tspan></text><text font-family="Calibri" font-style="normal" font-weight="normal" font-stretch="normal" font-size="13.125pt" fill="#000000" x="0" y="37.19812"><tspan>•</tspan></text><text font-family="Arial" font-style="normal" font-weight="normal" font-stretch="normal" font-size="12.75pt" fill="#000000" x="13.5" y="37.19812"><tspan>透视</tspan></text></g>
    <g transform="matrix(1, 0, 0, 1, -66, -120)">
      <path fill="#B5CBE7" d="M539.59 200.98L560.96 200.98 560.96 195.58 574.47 209.09 560.96 222.6 560.96 217.19 539.59 217.19z" />
    </g>
    <g transform="matrix(1, 0, 0, 1, 358.150177, 60.23903)"><text font-family="Arial" font-style="normal" font-weight="normal" font-stretch="normal" font-size="12.75pt" fill="#000000" x="0" y="15.77812"><tspan>投影</tspan></text><text font-family="SimSun" font-style="normal" font-weight="normal" font-stretch="normal" font-size="12.75pt" fill="#000000" x="0" y="41.27812"><tspan>Projection</tspan></text></g>
    <g transform="matrix(1, 0, 0, 1, -66, -120)">
      <path fill="#BDD7EE" d="M588.95 176.5C588.95 173.31 591.53 170.72 594.73 170.72L691.68 170.72C694.87 170.72 697.46 173.31 697.46 176.5L697.46 222.76 697.46 222.76C697.46 225.96 694.87 228.55 691.68 228.55L594.73 228.55 594.73 228.55C591.53 228.55 588.95 225.96 588.95 222.76z" />
      <path stroke-width="1" stroke="#FFFFFF" fill="none" d="M588.95 176.5C588.95 173.31 591.53 170.72 594.73 170.72L691.68 170.72C694.87 170.72 697.46 173.31 697.46 176.5L697.46 222.76 697.46 222.76C697.46 225.96 694.87 228.55 691.68 228.55L594.73 228.55 594.73 228.55C591.53 228.55 588.95 225.96 588.95 222.76z" />
    </g>
    <g transform="matrix(1, 0, 0, 1, -66, -120)">
      <path fill="#FFFFFF" fill-opacity="0.9" d="M611.17 236.81C611.17 232.55 614.62 229.1 618.88 229.1L711.97 229.1C716.23 229.1 719.68 232.55 719.68 236.81L719.68 298.49 719.68 298.49C719.68 302.75 716.23 306.2 711.97 306.2L618.88 306.2C614.62 306.2 611.17 302.75 611.17 298.49z" />
      <path stroke-width="1" stroke="#5B9BD5" fill="none" d="M611.17 236.81C611.17 232.55 614.62 229.1 618.88 229.1L711.97 229.1C716.23 229.1 719.68 232.55 719.68 236.81L719.68 298.49 719.68 298.49C719.68 302.75 716.23 306.2 711.97 306.2L618.88 306.2C614.62 306.2 611.17 302.75 611.17 298.49z" />
    </g>
    <g transform="matrix(1, 0, 0, 1, 554.1493, 118.077271)"><text font-family="SimSun" font-style="normal" font-weight="normal" font-stretch="normal" font-size="9.375pt" fill="#000000" x="0" y="11.1375"><tspan>•</tspan></text><text font-family="SimSun" font-style="normal" font-weight="normal" font-stretch="normal" font-size="9pt" fill="#000000" x="9" y="11.1375"><tspan>CVV</tspan></text><text font-family="Calibri" font-style="normal" font-weight="normal" font-stretch="normal" font-size="9.375pt" fill="#000000" x="0" y="26.2575"><tspan>•</tspan></text><text font-family="Arial" font-style="normal" font-weight="normal" font-stretch="normal" font-size="9pt" fill="#000000" x="9" y="26.2575"><tspan>正面或背面剔</tspan></text><text font-family="Arial" font-style="normal" font-weight="normal" font-stretch="normal" font-size="9pt" fill="#000000" x="9" y="39.2175"><tspan>除（可配置）</tspan></text></g>
    <g transform="matrix(0.998616159, -0.0525902025, 0.0525902025, 0.998616159, -75.73981, -81.2554)">
      <path fill="#B5CBE7" d="M713.89 196.34L735.3 196.34 735.3 190.94 748.81 204.45 735.3 217.96 735.3 212.55 713.89 212.55z" />
    </g>
    <g transform="matrix(1, 0, 0, 1, 532.465332, 60.23903)"><text font-family="Arial" font-style="normal" font-weight="normal" font-stretch="normal" font-size="12.75pt" fill="#000000" x="0" y="15.77812"><tspan>裁剪</tspan></text><text font-family="SimSun" font-style="normal" font-weight="normal" font-stretch="normal" font-size="12.75pt" fill="#000000" x="0" y="41.27812"><tspan>Clipping</tspan></text></g>
    <g transform="matrix(1, 0, 0, 1, -66, -120)">
      <path fill="#BDD7EE" d="M763.26 167.32C763.26 164.13 765.85 161.54 769.04 161.54L865.99 161.54C869.19 161.54 871.77 164.13 871.77 167.32L871.77 213.58 871.77 213.58C871.77 216.78 869.19 219.37 865.99 219.37L769.04 219.37 769.04 219.37C765.85 219.37 763.26 216.78 763.26 213.58z" />
      <path stroke-width="1" stroke="#FFFFFF" fill="none" d="M763.26 167.32C763.26 164.13 765.85 161.54 769.04 161.54L865.99 161.54C869.19 161.54 871.77 164.13 871.77 167.32L871.77 213.58 871.77 213.58C871.77 216.78 869.19 219.37 865.99 219.37L769.04 219.37 769.04 219.37C765.85 219.37 763.26 216.78 763.26 213.58z" />
    </g>
    <g transform="matrix(1, 0, 0, 1, -66, -120)">
      <path fill="#FFFFFF" fill-opacity="0.9" d="M785.49 245.99C785.49 241.73 788.94 238.28 793.2 238.28L886.29 238.28C890.55 238.28 894 241.73 894 245.99L894 307.67 894 307.67C894 311.93 890.55 315.38 886.29 315.38L793.2 315.38C788.94 315.38 785.49 311.93 785.49 307.67z" />
      <path stroke-width="1" stroke="#5B9BD5" fill="none" d="M785.49 245.99C785.49 241.73 788.94 238.28 793.2 238.28L886.29 238.28C890.55 238.28 894 241.73 894 245.99L894 307.67 894 307.67C894 311.93 890.55 315.38 886.29 315.38L793.2 315.38C788.94 315.38 785.49 311.93 785.49 307.67z" />
    </g>
    <g transform="matrix(1, 0, 0, 1, 728.464355, 127.257263)"><text font-family="Calibri" font-style="normal" font-weight="normal" font-stretch="normal" font-size="9.375pt" fill="#000000" x="0" y="11.1375"><tspan>•</tspan></text><text font-family="Arial" font-style="normal" font-weight="normal" font-stretch="normal" font-size="9pt" fill="#000000" x="9" y="11.1375"><tspan>从连续到离散</tspan></text><text font-family="Calibri" font-style="normal" font-weight="normal" font-stretch="normal" font-size="9.375pt" fill="#000000" x="0" y="26.2575"><tspan>•</tspan></text><text font-family="Arial" font-style="normal" font-weight="normal" font-stretch="normal" font-size="9pt" fill="#000000" x="9" y="26.2575"><tspan>坐标系差异</tspan></text><text font-family="Arial" font-style="normal" font-weight="normal" font-stretch="normal" font-size="9pt" fill="#000000" x="9" y="39.2175"><tspan>（</tspan><tspan font-family="SimSun">OpenGL/D3D</tspan></text><text font-family="Arial" font-style="normal" font-weight="normal" font-stretch="normal" font-size="9pt" fill="#000000" x="9" y="52.1775"><tspan>）</tspan></text></g>
    <g transform="matrix(1, 0, 0, 1, 706.7804, 51.0590363)"><text font-family="Arial" font-style="normal" font-weight="normal" font-stretch="normal" font-size="12.75pt" fill="#000000" x="0" y="15.77812"><tspan>屏幕映射</tspan></text><text font-family="SimSun" font-style="normal" font-weight="normal" font-stretch="normal" font-size="12.75pt" fill="#000000" x="0" y="41.27812"><tspan>Screen</tspan><tspan xml:space="preserve"> </tspan></text><text font-family="SimSun" font-style="normal" font-weight="normal" font-stretch="normal" font-size="12.75pt" fill="#000000" x="0" y="59.63812"><tspan>Mapping</tspan></text></g>
  </g>
</svg>