<?xml version="1.0" encoding="utf-8" standalone="yes"?>
<!DOCTYPE svg PUBLIC "-//W3C//DTD SVG 1.1//EN" "http://www.w3.org/Graphics/SVG/1.1/DTD/svg11.dtd">
<svg version="1.1" xmlns="http://www.w3.org/2000/svg" xmlns:xlink="http://www.w3.org/1999/xlink" width="11.5in" height="4.75in" class="slides-canvas" viewBox="0 0 828 342">
  <g text-rendering="geometricPrecision" transform="scale(1, 1)">
    <g transform="matrix(1, 0, 0, 1, -66, -144)">
      <path fill="#E2F0D9" d="M66 160.72C66 153.13 72.15 146.98 79.75 146.98L189.71 146.98C197.3 146.98 203.45 153.13 203.45 160.72L203.45 344.13C203.45 351.72 197.3 357.88 189.71 357.88L79.75 357.88 79.75 357.88C72.15 357.88 66 351.72 66 344.13z" />
      <path stroke-width="1" stroke="#FFFFFF" fill="none" d="M66 160.72C66 153.13 72.15 146.98 79.75 146.98L189.71 146.98C197.3 146.98 203.45 153.13 203.45 160.72L203.45 344.13C203.45 351.72 197.3 357.88 189.71 357.88L79.75 357.88 79.75 357.88C72.15 357.88 66 351.72 66 344.13z" />
    </g>
    <g transform="matrix(1, 0, 0, 1, -66, -144)">
      <path fill="#FFFFFF" fill-opacity="0.9" d="M94.15 215.7C94.15 208.11 100.31 201.96 107.9 201.96L217.86 201.96C225.45 201.96 231.6 208.11 231.6 215.7L231.6 469.41C231.6 477 225.45 483.16 217.86 483.16L107.9 483.16 107.9 483.16C100.31 483.16 94.15 477 94.15 469.41z" />
      <path stroke-width="1" stroke="#5B9BD5" fill="none" d="M94.15 215.7C94.15 208.11 100.31 201.96 107.9 201.96L217.86 201.96C225.45 201.96 231.6 208.11 231.6 215.7L231.6 469.41C231.6 477 225.45 483.16 217.86 483.16L107.9 483.16 107.9 483.16C100.31 483.16 94.15 477 94.15 469.41z" />
    </g>
    <g transform="matrix(1, 0, 0, 1, 40.0183563, 69.82512)"><text font-family="Calibri" font-style="normal" font-weight="normal" font-stretch="normal" font-size="10.875pt" fill="#000000" x="0" y="12.99375"><tspan>•</tspan></text><text font-family="Arial" font-style="normal" font-weight="normal" font-stretch="normal" font-size="10.5pt" fill="#000000" x="9" y="12.99375"><tspan>场景物体数据</tspan></text><text font-family="Calibri" font-style="normal" font-weight="normal" font-stretch="normal" font-size="10.875pt" fill="#000000" x="0" y="30.63375"><tspan>•</tspan></text><text font-family="Arial" font-style="normal" font-weight="normal" font-stretch="normal" font-size="10.5pt" fill="#000000" x="9" y="30.63375"><tspan>摄像机数据</tspan></text><text font-family="Calibri" font-style="normal" font-weight="normal" font-stretch="normal" font-size="10.875pt" fill="#000000" x="0" y="48.27375"><tspan>•</tspan></text><text font-family="Arial" font-style="normal" font-weight="normal" font-stretch="normal" font-size="10.5pt" fill="#000000" x="9" y="48.27375"><tspan>光源及阴影数据</tspan></text><text font-family="Calibri" font-style="normal" font-weight="normal" font-stretch="normal" font-size="10.875pt" fill="#000000" x="0" y="65.91376"><tspan>•</tspan></text><text font-family="Arial" font-style="normal" font-weight="normal" font-stretch="normal" font-size="10.5pt" fill="#000000" x="9" y="65.91376"><tspan>其他全局数据</tspan></text></g>
    <g transform="matrix(1, 0, 0, 1, -66, -144)">
      <path fill="#B5CBE7" d="M224.29 168.25L251.35 168.25 251.35 161.41 268.46 178.52 251.35 195.63 251.35 188.79 224.29 188.79z" />
    </g>
    <g transform="matrix(1, 0, 0, 1, 7.83999634, 10.8190308)"><text font-family="Arial" font-style="normal" font-weight="normal" font-stretch="normal" font-size="10.5pt" fill="#000000" x="0" y="12.99375"><tspan>准备基本场景数据</tspan></text></g>
    <g transform="matrix(1, 0, 0, 1, -66, -144)">
      <path fill="#E2F0D9" d="M286.8 160.72C286.8 153.13 292.95 146.98 300.54 146.98L410.5 146.98C418.1 146.98 424.25 153.13 424.25 160.72L424.25 344.13 424.25 344.13C424.25 351.72 418.1 357.88 410.5 357.88L300.54 357.88 300.54 357.88C292.95 357.88 286.8 351.72 286.8 344.13z" />
      <path stroke-width="1" stroke="#FFFFFF" fill="none" d="M286.8 160.72C286.8 153.13 292.95 146.98 300.54 146.98L410.5 146.98C418.1 146.98 424.25 153.13 424.25 160.72L424.25 344.13 424.25 344.13C424.25 351.72 418.1 357.88 410.5 357.88L300.54 357.88 300.54 357.88C292.95 357.88 286.8 351.72 286.8 344.13z" />
    </g>
    <g transform="matrix(1, 0, 0, 1, -66, -144)">
      <path fill="#FFFFFF" fill-opacity="0.9" d="M314.95 215.7C314.95 208.11 321.11 201.96 328.7 201.96L438.66 201.96C446.25 201.96 452.4 208.11 452.4 215.7L452.4 469.41 452.4 469.41C452.4 477 446.25 483.16 438.66 483.16L328.7 483.16 328.7 483.16C321.11 483.16 314.95 477 314.95 469.41z" />
      <path stroke-width="1" stroke="#5B9BD5" fill="none" d="M314.95 215.7C314.95 208.11 321.11 201.96 328.7 201.96L438.66 201.96C446.25 201.96 452.4 208.11 452.4 215.7L452.4 469.41 452.4 469.41C452.4 477 446.25 483.16 438.66 483.16L328.7 483.16 328.7 483.16C321.11 483.16 314.95 477 314.95 469.41z" />
    </g>
    <g transform="matrix(1, 0, 0, 1, 260.81723, 69.82512)"><text font-family="Calibri" font-style="normal" font-weight="normal" font-stretch="normal" font-size="10.875pt" fill="#000000" x="0" y="12.99375"><tspan>•</tspan></text><text font-family="Arial" font-style="normal" font-weight="normal" font-stretch="normal" font-size="10.5pt" fill="#000000" x="9" y="12.99375"><tspan>碰撞检测</tspan></text><text font-family="Calibri" font-style="normal" font-weight="normal" font-stretch="normal" font-size="10.875pt" fill="#000000" x="0" y="30.63375"><tspan>•</tspan></text><text font-family="Arial" font-style="normal" font-weight="normal" font-stretch="normal" font-size="10.5pt" fill="#000000" x="9" y="30.63375"><tspan>加速算法</tspan></text><text font-family="Calibri" font-style="normal" font-weight="normal" font-stretch="normal" font-size="10.875pt" fill="#000000" x="0" y="48.27375"><tspan>•</tspan></text><text font-family="Arial" font-style="normal" font-weight="normal" font-stretch="normal" font-size="10.5pt" fill="#000000" x="9" y="48.27375"><tspan>遮挡剔除</tspan></text><text font-family="Calibri" font-style="normal" font-weight="normal" font-stretch="normal" font-size="10.875pt" fill="#000000" x="0" y="65.91376"><tspan>•</tspan></text><text font-family="Arial" font-style="normal" font-weight="normal" font-stretch="normal" font-size="10.5pt" fill="#000000" x="9" y="65.91376"><tspan>其他算法</tspan></text></g>
    <g transform="matrix(1, 0, 0, 1, -66, -144)">
      <path fill="#B5CBE7" d="M445.09 168.25L472.15 168.25 472.15 161.41 489.26 178.52 472.15 195.63 472.15 188.79 445.09 188.79z" />
    </g>
    <g transform="matrix(1, 0, 0, 1, 228.638885, 10.8190308)"><text font-family="Arial" font-style="normal" font-weight="normal" font-stretch="normal" font-size="10.5pt" fill="#000000" x="0" y="12.99375"><tspan>加速算法</tspan></text><text font-family="Arial" font-style="normal" font-weight="normal" font-stretch="normal" font-size="10.5pt" fill="#000000" x="0" y="33.99375"><tspan>粗粒度剔除</tspan></text></g>
    <g transform="matrix(1, 0, 0, 1, -66, -144)">
      <path fill="#E2F0D9" d="M507.6 160.72C507.6 153.13 513.75 146.98 521.34 146.98L631.3 146.98C638.89 146.98 645.05 153.13 645.05 160.72L645.05 344.13 645.05 344.13C645.05 351.72 638.89 357.88 631.3 357.88L521.34 357.88 521.34 357.88C513.75 357.88 507.6 351.72 507.6 344.13z" />
      <path stroke-width="1" stroke="#FFFFFF" fill="none" d="M507.6 160.72C507.6 153.13 513.75 146.98 521.34 146.98L631.3 146.98C638.89 146.98 645.05 153.13 645.05 160.72L645.05 344.13 645.05 344.13C645.05 351.72 638.89 357.88 631.3 357.88L521.34 357.88 521.34 357.88C513.75 357.88 507.6 351.72 507.6 344.13z" />
    </g>
    <g transform="matrix(1, 0, 0, 1, -66, -144)">
      <path fill="#FFFFFF" fill-opacity="0.9" d="M535.75 215.7C535.75 208.11 541.9 201.96 549.5 201.96L659.46 201.96C667.05 201.96 673.2 208.11 673.2 215.7L673.2 469.41 673.2 469.41C673.2 477 667.05 483.16 659.46 483.16L549.5 483.16 549.5 483.16C541.9 483.16 535.75 477 535.75 469.41z" />
      <path stroke-width="1" stroke="#5B9BD5" fill="none" d="M535.75 215.7C535.75 208.11 541.9 201.96 549.5 201.96L659.46 201.96C667.05 201.96 673.2 208.11 673.2 215.7L673.2 469.41 673.2 469.41C673.2 477 667.05 483.16 659.46 483.16L549.5 483.16 549.5 483.16C541.9 483.16 535.75 477 535.75 469.41z" />
    </g>
    <g transform="matrix(1, 0, 0, 1, 481.61615, 69.82512)"><text font-family="Calibri" font-style="normal" font-weight="normal" font-stretch="normal" font-size="10.875pt" fill="#000000" x="0" y="12.99375"><tspan>•</tspan></text><text font-family="Arial" font-style="normal" font-weight="normal" font-stretch="normal" font-size="10.5pt" fill="#000000" x="9" y="12.99375"><tspan>绘制设置</tspan></text><text font-family="Calibri" font-style="normal" font-weight="normal" font-stretch="normal" font-size="10.875pt" fill="#000000" x="0" y="30.63375"><tspan>•</tspan></text><text font-family="Arial" font-style="normal" font-weight="normal" font-stretch="normal" font-size="10.5pt" fill="#000000" x="9" y="30.63375"><tspan>绘制顺序</tspan></text><text font-family="Calibri" font-style="normal" font-weight="normal" font-stretch="normal" font-size="10.875pt" fill="#000000" x="0" y="48.27375"><tspan>•</tspan></text><text font-family="Arial" font-style="normal" font-weight="normal" font-stretch="normal" font-size="10.5pt" fill="#000000" x="9" y="48.27375"><tspan>渲染目标</tspan></text><text font-family="Calibri" font-style="normal" font-weight="normal" font-stretch="normal" font-size="10.875pt" fill="#000000" x="0" y="65.91376"><tspan>•</tspan></text><text font-family="Arial" font-style="normal" font-weight="normal" font-stretch="normal" font-size="10.5pt" fill="#000000" x="9" y="65.91376"><tspan>渲染模式</tspan></text></g>
    <g transform="matrix(0.999893069, -0.014622896, 0.014622896, 0.999893069, -68.51306, -133.920929)">
      <path fill="#B5CBE7" d="M665.88 166.62L692.95 166.62 692.95 159.78 710.06 176.89 692.95 194 692.95 187.15 665.88 187.15z" />
    </g>
    <g transform="matrix(1, 0, 0, 1, 449.437744, 10.8190308)"><text font-family="Arial" font-style="normal" font-weight="normal" font-stretch="normal" font-size="10.5pt" fill="#000000" x="0" y="12.99375"><tspan>设置渲染状态</tspan></text><text font-family="Arial" font-style="normal" font-weight="normal" font-stretch="normal" font-size="10.5pt" fill="#000000" x="0" y="33.99375"><tspan>准备渲染参数</tspan></text></g>
    <g transform="matrix(1, 0, 0, 1, -66, -144)">
      <path fill="#E2F0D9" d="M728.4 157.5C728.4 149.9 734.55 143.75 742.14 143.75L852.1 143.75C859.69 143.75 865.85 149.9 865.85 157.5L865.85 339.67 865.85 339.67C865.85 347.26 859.69 353.42 852.1 353.42L742.14 353.42 742.14 353.42C734.55 353.42 728.4 347.26 728.4 339.67z" />
      <path stroke-width="1" stroke="#FFFFFF" fill="none" d="M728.4 157.5C728.4 149.9 734.55 143.75 742.14 143.75L852.1 143.75C859.69 143.75 865.85 149.9 865.85 157.5L865.85 339.67 865.85 339.67C865.85 347.26 859.69 353.42 852.1 353.42L742.14 353.42 742.14 353.42C734.55 353.42 728.4 347.26 728.4 339.67z" />
    </g>
    <g transform="matrix(1, 0, 0, 1, -66, -144)">
      <path fill="#FFFFFF" fill-opacity="0.9" d="M756.55 220.58C756.55 212.98 762.7 206.83 770.29 206.83L880.25 206.83C887.85 206.83 894 212.98 894 220.58L894 474.28 894 474.28C894 481.87 887.85 488.03 880.26 488.03L770.29 488.03 770.29 488.03C762.7 488.03 756.55 481.87 756.55 474.28z" />
      <path stroke-width="1" stroke="#5B9BD5" fill="none" d="M756.55 220.58C756.55 212.98 762.7 206.83 770.29 206.83L880.25 206.83C887.85 206.83 894 212.98 894 220.58L894 474.28 894 474.28C894 481.87 887.85 488.03 880.26 488.03L770.29 488.03 770.29 488.03C762.7 488.03 756.55 481.87 756.55 474.28z" />
    </g>
    <g transform="matrix(1, 0, 0, 1, 702.415039, 74.6957855)"><text font-family="Calibri" font-style="normal" font-weight="normal" font-stretch="normal" font-size="10.875pt" fill="#000000" x="0" y="12.99375"><tspan>•</tspan></text><text font-family="Arial" font-style="normal" font-weight="normal" font-stretch="normal" font-size="10.5pt" fill="#000000" x="9" y="12.99375"><tspan>顶点数据</tspan></text><text font-family="Calibri" font-style="normal" font-weight="normal" font-stretch="normal" font-size="10.875pt" fill="#000000" x="0" y="30.63375"><tspan>•</tspan></text><text font-family="Arial" font-style="normal" font-weight="normal" font-stretch="normal" font-size="10.5pt" fill="#000000" x="9" y="30.63375"><tspan>其他数据</tspan></text></g>
    <g transform="matrix(1, 0, 0, 1, 670.236755, 7.589981)"><text font-family="Arial" font-style="normal" font-weight="normal" font-stretch="normal" font-size="10.5pt" fill="#000000" x="0" y="12.99375"><tspan>调用</tspan><tspan font-family="SimSun">DrawCall</tspan></text><text font-family="Arial" font-style="normal" font-weight="normal" font-stretch="normal" font-size="10.5pt" fill="#000000" x="0" y="33.99375"><tspan>输出渲染图元到显</tspan></text><text font-family="Arial" font-style="normal" font-weight="normal" font-stretch="normal" font-size="10.5pt" fill="#000000" x="0" y="49.11375"><tspan>存</tspan></text></g>
  </g>
</svg>