<?xml version="1.0" encoding="utf-8" standalone="yes"?>
<!DOCTYPE svg PUBLIC "-//W3C//DTD SVG 1.1//EN" "http://www.w3.org/Graphics/SVG/1.1/DTD/svg11.dtd">
<svg version="1.1" xmlns="http://www.w3.org/2000/svg" xmlns:xlink="http://www.w3.org/1999/xlink" width="11.5in" height="4.75in" class="slides-canvas" viewBox="0 0 828 342">
  <g text-rendering="geometricPrecision" transform="scale(1, 1)">
    <g transform="matrix(1, 0, 0, 1, -66, -144)">
      <path fill="#FFEBEB" d="M66 164.21C66 157.45 71.48 151.96 78.25 151.96L241.19 151.96C247.95 151.96 253.43 157.45 253.43 164.21L253.43 262.18C253.43 268.94 247.95 274.42 241.19 274.42L78.25 274.42C71.48 274.42 66 268.94 66 262.18z" />
      <path stroke-width="1" stroke="#FFFFFF" fill="none" d="M66 164.21C66 157.45 71.48 151.96 78.25 151.96L241.19 151.96C247.95 151.96 253.43 157.45 253.43 164.21L253.43 262.18C253.43 268.94 247.95 274.42 241.19 274.42L78.25 274.42C71.48 274.42 66 268.94 66 262.18z" />
    </g>
    <g transform="matrix(1, 0, 0, 1, -66, -144)">
      <path fill="#FFFFFF" fill-opacity="0.9" d="M104.39 331.21C104.39 322.19 111.7 314.88 120.72 314.88L275.49 314.88C284.51 314.88 291.82 322.19 291.82 331.21L291.82 461.83 291.82 461.83C291.82 470.85 284.51 478.16 275.49 478.16L120.72 478.16 120.72 478.16C111.7 478.16 104.39 470.85 104.39 461.83z" />
      <path stroke-width="1" stroke="#5B9BD5" fill="none" d="M104.39 331.21C104.39 322.19 111.7 314.88 120.72 314.88L275.49 314.88C284.51 314.88 291.82 322.19 291.82 331.21L291.82 461.83 291.82 461.83C291.82 470.85 284.51 478.16 275.49 478.16L120.72 478.16 120.72 478.16C111.7 478.16 104.39 470.85 104.39 461.83z" />
    </g>
    <g transform="matrix(1, 0, 0, 1, -66, -144)">
      <path fill="#B5CBE7" d="M281.85 219.43L318.75 219.43 318.75 210.09 342.08 233.42 318.75 256.76 318.75 247.42 281.85 247.42z" />
    </g>
    <g transform="matrix(1, 0, 0, 1, 20.1600037, 28.12471)"><text font-family="Arial" font-style="normal" font-weight="normal" font-stretch="normal" font-size="27pt" fill="#000000" x="0" y="33.4125"><tspan>像素着色</tspan></text><text font-family="SimSun" font-style="normal" font-weight="normal" font-stretch="normal" font-size="27pt" fill="#000000" x="0" y="87.41251"><tspan>Fragment</tspan><tspan xml:space="preserve"> </tspan></text><text font-family="SimSun" font-style="normal" font-weight="normal" font-stretch="normal" font-size="27pt" fill="#000000" x="0" y="126.2925"><tspan>Shader</tspan></text></g>
    <g transform="matrix(1, 0, 0, 1, -66, -144)">
      <path fill="#FFEBEB" d="M367.09 164.21C367.09 157.45 372.57 151.96 379.33 151.96L542.28 151.96C549.04 151.96 554.52 157.45 554.52 164.21L554.52 262.18C554.52 268.94 549.04 274.42 542.28 274.42L379.33 274.42C372.57 274.42 367.09 268.94 367.09 262.18z" />
      <path stroke-width="1" stroke="#FFFFFF" fill="none" d="M367.09 164.21C367.09 157.45 372.57 151.96 379.33 151.96L542.28 151.96C549.04 151.96 554.52 157.45 554.52 164.21L554.52 262.18C554.52 268.94 549.04 274.42 542.28 274.42L379.33 274.42C372.57 274.42 367.09 268.94 367.09 262.18z" />
    </g>
    <g transform="matrix(1, 0, 0, 1, -66, -144)">
      <path fill="#FFFFFF" fill-opacity="0.9" d="M405.48 331.21C405.48 322.19 412.79 314.88 421.81 314.88L576.58 314.88C585.6 314.88 592.91 322.19 592.91 331.21L592.91 461.83 592.91 461.83C592.91 470.85 585.6 478.16 576.58 478.16L421.81 478.16 421.81 478.16C412.79 478.16 405.48 470.85 405.48 461.83z" />
      <path stroke-width="1" stroke="#5B9BD5" fill="none" d="M405.48 331.21C405.48 322.19 412.79 314.88 421.81 314.88L576.58 314.88C585.6 314.88 592.91 322.19 592.91 331.21L592.91 461.83 592.91 461.83C592.91 470.85 585.6 478.16 576.58 478.16L421.81 478.16 421.81 478.16C412.79 478.16 405.48 470.85 405.48 461.83z" />
    </g>
    <g transform="matrix(1, 0, 0, 1, 352.1008, 183.5069)"><text font-family="SimSun" font-style="normal" font-weight="normal" font-stretch="normal" font-size="10.875pt" fill="#000000" x="0" y="12.99375"><tspan>•</tspan></text><text font-family="SimSun" font-style="normal" font-weight="normal" font-stretch="normal" font-size="10.5pt" fill="#000000" x="9" y="12.99375"><tspan>Alpha Test</tspan></text><text font-family="SimSun" font-style="normal" font-weight="normal" font-stretch="normal" font-size="10.875pt" fill="#000000" x="0" y="30.63375"><tspan>•</tspan></text><text font-family="SimSun" font-style="normal" font-weight="normal" font-stretch="normal" font-size="10.5pt" fill="#000000" x="9" y="30.63375"><tspan>Depth Buffer Test</tspan></text><text font-family="SimSun" font-style="normal" font-weight="normal" font-stretch="normal" font-size="10.875pt" fill="#000000" x="0" y="48.27375"><tspan>•</tspan></text><text font-family="SimSun" font-style="normal" font-weight="normal" font-stretch="normal" font-size="10.5pt" fill="#000000" x="9" y="48.27375"><tspan>Stencil Test</tspan></text><text font-family="SimSun" font-style="normal" font-weight="normal" font-stretch="normal" font-size="10.875pt" fill="#000000" x="0" y="65.91376"><tspan>•</tspan></text><text font-family="SimSun" font-style="normal" font-weight="normal" font-stretch="normal" font-size="10.5pt" fill="#000000" x="9" y="65.91376"><tspan>Blending</tspan></text></g>
    <g transform="matrix(0.9960033, 0.08931614, -0.08931614, 0.9960033, -41.48181, -197.768158)">
      <path fill="#B5CBE7" d="M582.81 233.08L619.96 233.08 619.96 223.74 643.29 247.08 619.96 270.41 619.96 261.08 582.81 261.08z" />
    </g>
    <g transform="matrix(1, 0, 0, 1, 321.248871, 28.12471)"><text font-family="Arial" font-style="normal" font-weight="normal" font-stretch="normal" font-size="27pt" fill="#000000" x="0" y="33.4125"><tspan>颜色混合</tspan></text><text font-family="SimSun" font-style="normal" font-weight="normal" font-stretch="normal" font-size="27pt" fill="#000000" x="0" y="87.41251"><tspan>Color</tspan><tspan xml:space="preserve"> </tspan></text><text font-family="SimSun" font-style="normal" font-weight="normal" font-stretch="normal" font-size="27pt" fill="#000000" x="0" y="126.2925"><tspan>Blending</tspan></text></g>
    <g transform="matrix(1, 0, 0, 1, -66, -144)">
      <path fill="#FFEBEB" d="M668.18 191.21C668.18 184.45 673.66 178.96 680.42 178.96L843.36 178.96C850.13 178.96 855.61 184.45 855.61 191.21L855.61 289.18C855.61 295.94 850.13 301.42 843.36 301.42L680.42 301.42C673.66 301.42 668.18 295.94 668.18 289.18z" />
      <path stroke-width="1" stroke="#FFFFFF" fill="none" d="M668.18 191.21C668.18 184.45 673.66 178.96 680.42 178.96L843.36 178.96C850.13 178.96 855.61 184.45 855.61 191.21L855.61 289.18C855.61 295.94 850.13 301.42 843.36 301.42L680.42 301.42C673.66 301.42 668.18 295.94 668.18 289.18z" />
    </g>
    <g transform="matrix(1, 0, 0, 1, -66, -144)">
      <path fill="#FFFFFF" fill-opacity="0.9" d="M706.57 304.21C706.57 295.19 713.88 287.88 722.9 287.88L877.67 287.88C886.69 287.88 894 295.19 894 304.21L894 434.83 894 434.83C894 443.85 886.69 451.16 877.67 451.16L722.9 451.16 722.9 451.16C713.88 451.16 706.57 443.85 706.57 434.83z" />
      <path stroke-width="1" stroke="#5B9BD5" fill="none" d="M706.57 304.21C706.57 295.19 713.88 287.88 722.9 287.88L877.67 287.88C886.69 287.88 894 295.19 894 304.21L894 434.83 894 434.83C894 443.85 886.69 451.16 877.67 451.16L722.9 451.16 722.9 451.16C713.88 451.16 706.57 443.85 706.57 434.83z" />
    </g>
    <g transform="matrix(1, 0, 0, 1, 653.1897, 156.5069)"><text font-family="SimSun" font-style="normal" font-weight="normal" font-stretch="normal" font-size="10.875pt" fill="#000000" x="0" y="12.99375"><tspan>•</tspan></text><text font-family="SimSun" font-style="normal" font-weight="normal" font-stretch="normal" font-size="10.5pt" fill="#000000" x="9" y="12.99375"><tspan>FrameBuffer</tspan></text><text font-family="SimSun" font-style="normal" font-weight="normal" font-stretch="normal" font-size="10.875pt" fill="#000000" x="0" y="30.63375"><tspan>•</tspan></text><text font-family="SimSun" font-style="normal" font-weight="normal" font-stretch="normal" font-size="10.5pt" fill="#000000" x="9" y="30.63375"><tspan>RenderTexture</tspan></text></g>
    <g transform="matrix(1, 0, 0, 1, 622.337769, 55.12471)"><text font-family="Arial" font-style="normal" font-weight="normal" font-stretch="normal" font-size="27pt" fill="#000000" x="0" y="33.4125"><tspan>目标缓冲</tspan></text><text font-family="Arial" font-style="normal" font-weight="normal" font-stretch="normal" font-size="27pt" fill="#000000" x="0" y="72.2925"><tspan>区</tspan></text></g>
  </g>
</svg>