<?xml version="1.0" encoding="utf-8" standalone="yes"?>
<!DOCTYPE svg PUBLIC "-//W3C//DTD SVG 1.1//EN" "http://www.w3.org/Graphics/SVG/1.1/DTD/svg11.dtd">
<svg version="1.1" xmlns="http://www.w3.org/2000/svg" xmlns:xlink="http://www.w3.org/1999/xlink" width="11.5in" height="4.75in" class="slides-canvas" viewBox="0 0 828 342">
  <g text-rendering="geometricPrecision" transform="scale(1, 1)">
    <g transform="matrix(0, 1, -1, 0, 208.359314, -54.8483734)">
      <path fill="#5B9BD5" d="M54.6 155.15L104.01 155.15 130.61 181.76 104.01 208.36 54.6 208.36 81.2 181.76z" />
      <path stroke-width="1" stroke="#5B9BD5" fill="none" d="M54.6 155.15L104.01 155.15 130.61 181.76 104.01 208.36 54.6 208.36 81.2 181.76z" />
    </g>
    <g transform="matrix(1, 0, 0, 1, 1, 27.3538361)"><text font-family="SimSun" font-style="normal" font-weight="normal" font-stretch="normal" font-size="14.25pt" fill="#FFFFFF" x="20.85385" y="17.77602"><tspan>1</tspan></text></g>
    <g transform="matrix(0, 1, -1, 0, 609.057434, -482.150269)">
      <path fill="#FBE5D6" fill-opacity="0.9" d="M490.13-218.94L523.07-218.94C527.62-218.94 531.31-215.26 531.31-210.71L531.31 555.85 481.9 555.85 481.9-210.71C481.9-215.26 485.59-218.94 490.13-218.94z" />
      <path stroke-width="1" stroke="#5B9BD5" fill="none" d="M490.13-218.94L523.07-218.94C527.62-218.94 531.31-215.26 531.31-210.71L531.31 555.85 481.9 555.85 481.9-210.71C481.9-215.26 485.59-218.94 490.13-218.94z" />
    </g>
    <g transform="matrix(1, 0, 0, 1, 66.08771, 3.16185)"><text font-family="Calibri" font-style="normal" font-weight="normal" font-stretch="normal" font-size="17.625pt" fill="#000000" x="0" y="30.21859"><tspan>•</tspan></text><text font-family="Arial" font-style="normal" font-weight="normal" font-stretch="normal" font-size="17.25pt" fill="#000000" x="18" y="30.21859"><tspan>应用阶段：粗粒度剔除，进行渲染设置，准备基本数据，输出到几何阶段</tspan></text></g>
    <g transform="matrix(0, 1, -1, 0, 275.012848, 11.8051453)">
      <path fill="#5B9BD5" d="M54.6 221.81L104.01 221.81 130.61 248.41 104.01 275.01 54.6 275.01 81.2 248.41z" />
      <path stroke-width="1" stroke="#5B9BD5" fill="none" d="M54.6 221.81L104.01 221.81 130.61 248.41 104.01 275.01 54.6 275.01 81.2 248.41z" />
    </g>
    <g transform="matrix(1, 0, 0, 1, 1, 94.0073547)"><text font-family="SimSun" font-style="normal" font-weight="normal" font-stretch="normal" font-size="14.25pt" fill="#FFFFFF" x="20.85385" y="17.77602"><tspan>2</tspan></text></g>
    <g transform="matrix(0, 1, -1, 0, 675.710938, -415.496765)">
      <path fill="#C5E0B4" fill-opacity="0.9" d="M490.13-152.29L523.07-152.29C527.62-152.29 531.31-148.6 531.31-144.05L531.31 622.5 481.9 622.5 481.9-144.05C481.9-148.6 485.59-152.29 490.13-152.29z" />
      <path stroke-width="1" stroke="#5B9BD5" fill="none" d="M490.13-152.29L523.07-152.29C527.62-152.29 531.31-148.6 531.31-144.05L531.31 622.5 481.9 622.5 481.9-144.05C481.9-148.6 485.59-152.29 490.13-152.29z" />
    </g>
    <g transform="matrix(1, 0, 0, 1, 66.08771, 69.81535)"><text font-family="Calibri" font-style="normal" font-weight="normal" font-stretch="normal" font-size="17.625pt" fill="#000000" x="0" y="30.21859"><tspan>•</tspan></text><text font-family="Arial" font-style="normal" font-weight="normal" font-stretch="normal" font-size="17.25pt" fill="#000000" x="18" y="30.21859"><tspan>几何阶段：顶点着色器，曲面细分，几何着色器，顶点裁剪，屏幕映射</tspan></text></g>
    <g transform="matrix(0, 1, -1, 0, 341.666351, 78.45865)">
      <path fill="#5B9BD5" d="M54.6 288.46L104.01 288.46 130.61 315.06 104.01 341.67 54.6 341.67 81.2 315.06z" />
      <path stroke-width="1" stroke="#5B9BD5" fill="none" d="M54.6 288.46L104.01 288.46 130.61 315.06 104.01 341.67 54.6 341.67 81.2 315.06z" />
    </g>
    <g transform="matrix(1, 0, 0, 1, 1, 160.660858)"><text font-family="SimSun" font-style="normal" font-weight="normal" font-stretch="normal" font-size="14.25pt" fill="#FFFFFF" x="20.85385" y="17.77602"><tspan>3</tspan></text></g>
    <g transform="matrix(0, 1, -1, 0, 742.364441, -348.843262)">
      <path fill="#BDD7EE" fill-opacity="0.9" d="M490.13-85.64L523.07-85.64C527.62-85.64 531.31-81.95 531.31-77.4L531.31 689.16 481.9 689.16 481.9-77.4C481.9-81.95 485.59-85.64 490.13-85.64z" />
      <path stroke-width="1" stroke="#5B9BD5" fill="none" d="M490.13-85.64L523.07-85.64C527.62-85.64 531.31-81.95 531.31-77.4L531.31 689.16 481.9 689.16 481.9-77.4C481.9-81.95 485.59-85.64 490.13-85.64z" />
    </g>
    <g transform="matrix(1, 0, 0, 1, 66.08768, 136.468842)"><text font-family="Calibri" font-style="normal" font-weight="normal" font-stretch="normal" font-size="17.625pt" fill="#000000" x="0" y="30.21859"><tspan>•</tspan></text><text font-family="Arial" font-style="normal" font-weight="normal" font-stretch="normal" font-size="17.25pt" fill="#000000" x="18" y="30.21859"><tspan>光栅化阶段：三角形（点</tspan><tspan font-family="SimSun">/</tspan><tspan>线）设置，三角形（点</tspan><tspan font-family="SimSun">/</tspan><tspan>线）遍历，片段着色器</tspan></text></g>
    <g transform="matrix(0, 1, -1, 0, 408.319855, 145.112152)">
      <path fill="#5B9BD5" d="M54.6 355.11L104.01 355.11 130.61 381.72 104.01 408.32 54.6 408.32 81.2 381.72z" />
      <path stroke-width="1" stroke="#5B9BD5" fill="none" d="M54.6 355.11L104.01 355.11 130.61 381.72 104.01 408.32 54.6 408.32 81.2 381.72z" />
    </g>
    <g transform="matrix(1, 0, 0, 1, 0.999984741, 227.314362)"><text font-family="SimSun" font-style="normal" font-weight="normal" font-stretch="normal" font-size="14.25pt" fill="#FFFFFF" x="20.85385" y="17.77602"><tspan>4</tspan></text></g>
    <g transform="matrix(0, 1, -1, 0, 809.017944, -282.189728)">
      <path fill="#CCCCFF" fill-opacity="0.9" d="M490.13-18.98L523.07-18.98C527.62-18.98 531.31-15.3 531.31-10.75L531.31 755.81 481.9 755.81 481.9-10.75C481.9-15.3 485.59-18.98 490.13-18.98z" />
      <path stroke-width="1" stroke="#5B9BD5" fill="none" d="M490.13-18.98L523.07-18.98C527.62-18.98 531.31-15.3 531.31-10.75L531.31 755.81 481.9 755.81 481.9-10.75C481.9-15.3 485.59-18.98 490.13-18.98z" />
    </g>
    <g transform="matrix(1, 0, 0, 1, 66.08768, 203.1224)"><text font-family="Calibri" font-style="normal" font-weight="normal" font-stretch="normal" font-size="17.625pt" fill="#000000" x="0" y="30.21859"><tspan>•</tspan></text><text font-family="Arial" font-style="normal" font-weight="normal" font-stretch="normal" font-size="17.25pt" fill="#000000" x="18" y="30.21859"><tspan>逐片元操作：裁剪测试，透明度测试，深度测试，模板测试，混合</tspan></text></g>
    <g transform="matrix(0, 1, -1, 0, 474.9734, 211.765656)">
      <path fill="#5B9BD5" d="M54.6 421.77L104.01 421.77 130.61 448.37 104.01 474.97 54.6 474.97 81.2 448.37z" />
      <path stroke-width="1" stroke="#5B9BD5" fill="none" d="M54.6 421.77L104.01 421.77 130.61 448.37 104.01 474.97 54.6 474.97 81.2 448.37z" />
    </g>
    <g transform="matrix(1, 0, 0, 1, 1, 293.967865)"><text font-family="SimSun" font-style="normal" font-weight="normal" font-stretch="normal" font-size="14.25pt" fill="#FFFFFF" x="20.85385" y="17.77602"><tspan>9</tspan></text></g>
    <g transform="matrix(0, 1, -1, 0, 875.6715, -215.536224)">
      <path fill="#FFFFFF" fill-opacity="0.9" d="M490.13 47.67L523.07 47.67C527.62 47.67 531.31 51.36 531.31 55.91L531.31 822.46 481.9 822.46 481.9 55.91C481.9 51.36 485.59 47.67 490.13 47.67z" />
      <path stroke-width="1" stroke="#5B9BD5" fill="none" d="M490.13 47.67L523.07 47.67C527.62 47.67 531.31 51.36 531.31 55.91L531.31 822.46 481.9 822.46 481.9 55.91C481.9 51.36 485.59 47.67 490.13 47.67z" />
    </g>
    <g transform="matrix(1, 0, 0, 1, 66.08774, 269.7759)"><text font-family="Calibri" font-style="normal" font-weight="normal" font-stretch="normal" font-size="17.625pt" fill="#000000" x="0" y="30.21859"><tspan>•</tspan></text><text font-family="Arial" font-style="normal" font-weight="normal" font-stretch="normal" font-size="17.25pt" fill="#000000" x="18" y="30.21859"><tspan>后处理</tspan></text></g>
  </g>
</svg>